# xmcd
#
# Track frame offsets: 
#        150
#        17752
#        34923
#        52277
#        75180
#        97937
#        111520
#        129445
#        149595
#        164385
#        181797
#        211748
#
# Disc length: 2988 seconds
#
# Revision: 0
# Processed by: cddbd v1.5.2PL0 Copyright (c) Steve Scherf et al.
# Submitted via: ExactAudioCopy v0.99pb5
#
DISCID=9e0baa0c
DTITLE=Lhasa - Lhasa
DYEAR=1900
DGENRE=Chanson
TTITLE0=Is Anything Wrong
TTITLE1=Rising
TTITLE2=Love Came Here
TTITLE3=What Kind Of Heart
TTITLE4=Bells
TTITLE5=Fool's Gold
TTITLE6=A Fish On Land
TTITLE7=Where Do You Go
TTITLE8=The Lonely Spider
TTITLE9=1001 Nights
TTITLE10=I'm Going In
TTITLE11=Anyone And Everyone
EXTD=
EXTT0=
EXTT1=
EXTT2=
EXTT3=
EXTT4=
EXTT5=
EXTT6=
EXTT7=
EXTT8=
EXTT9=
EXTT10=
EXTT11=
PLAYORDER=
